<?xml version="1.0" encoding="iso-8859-1"?>
<!-- Uploaded to: SVG Repo, www.svgrepo.com, Generator: SVG Repo Mixer Tools -->
<svg height="800px" width="800px" version="1.1" id="Layer_1" xmlns="http://www.w3.org/2000/svg" xmlns:xlink="http://www.w3.org/1999/xlink" 
	 viewBox="0 0 512 512" xml:space="preserve">
<g>
	<circle style="fill:#A0EBFF;" cx="256" cy="256" r="256"/>
	<path style="fill:#71C6DE;" d="M210.775,318.003c-64.379,0-116.756-52.378-116.756-116.756c0-30.341,0-81.126,62.213-81.126v19.077
		c-40.136,0-43.136,24.566-43.136,62.044c0,53.857,43.817,97.674,97.674,97.674s97.674-43.817,97.674-97.674
		c0-37.478-3-62.044-43.136-62.044V120.12c62.213,0,62.213,50.78,62.213,81.126C327.532,265.631,275.154,318.003,210.775,318.003z"
		/>
	<circle style="fill:#FC611F;" cx="156.232" cy="129.664" r="18.524"/>
	<path style="fill:#E34E10;" d="M156.232,111.14v37.048c10.23,0,18.524-8.294,18.524-18.524S166.461,111.14,156.232,111.14z"/>
	<path style="fill:#48AFCC;" d="M265.318,120.125v19.077c40.136,0,43.131,24.566,43.131,62.044
		c0,53.857-43.817,97.674-97.674,97.674v19.077c64.379,0,116.756-52.378,116.756-116.756
		C327.532,170.906,327.532,120.125,265.318,120.125z"/>
	<circle style="fill:#FC611F;" cx="265.318" cy="129.664" r="18.524"/>
	<path style="fill:#E34E10;" d="M265.318,111.14v37.048c10.23,0,18.524-8.294,18.524-18.524S275.548,111.14,265.318,111.14z"/>
	<path style="fill:#48AFCC;" d="M294.702,417.521c-51.318,0-93.066-41.743-93.066-93.061h18.284
		c0,41.236,33.546,74.788,74.788,74.788c41.236,0,74.788-33.546,74.788-74.788h18.284
		C387.773,375.777,346.02,417.521,294.702,417.521z"/>
	<circle style="fill:#FFFFFF;" cx="378.092" cy="324.454" r="39.89"/>
	<circle style="fill:#B6F0FF;" cx="378.092" cy="324.454" r="30.095"/>
	<circle style="fill:#3194B0;" cx="378.092" cy="324.454" r="13.174"/>
	<path style="fill:#48AFCC;" d="M201.636,324.46c0,5.412,0.563,10.68,1.454,15.841h18.555c-1.106-5.11-1.725-10.404-1.725-15.841
		L201.636,324.46L201.636,324.46z"/>
	<ellipse style="fill:#FFFFFF;" cx="210.79" cy="309.043" rx="25.503" ry="17.377"/>
	<path style="fill:#B6F0FF;" d="M210.775,291.656v34.76c14.085,0,25.503-7.782,25.503-17.377
		C236.278,299.438,224.86,291.656,210.775,291.656z"/>
</g>
</svg>